# xmcd CD database file
#
# Track frame offsets:
#	150
#	15478
#	30279
#	44015
#	59071
#	72486
#	84562
#	100155
#	115417
#	130464
#	142818
#	158949
#	171953
#	189822
#
# Disc length: 2709 seconds
#
# Revision: 1
# Processed by: cddbd v1.5.2PL0 Copyright (c) Steve Scherf et al.
# Submitted via: jetAudio 5
#
DISCID=bf0a930e
DTITLE=Banda Passarela - Amiga.com
DYEAR=1900
DGENRE=Blues
TTITLE0=Faz de Conta
TTITLE1=O Coração Chora
TTITLE2=Te Amo (te amo)
TTITLE3=Não Case Com Ele
TTITLE4=Parece Feitiço
TTITLE5=Amiga.Com
TTITLE6=Por Causa Dela
TTITLE7=O Que é Que Deu Em Mim
TTITLE8=Que Amor é Esse
TTITLE9=Será Que o Amor é Assim
TTITLE10=Escrito Com Batom
TTITLE11=Vinho Pra Dois
TTITLE12=Longe de Mim
TTITLE13=É Nessa Que Eu Vou
EXTD=
EXTT0=
EXTT1=
EXTT2=
EXTT3=
EXTT4=
EXTT5=
EXTT6=
EXTT7=
EXTT8=
EXTT9=
EXTT10=
EXTT11=
EXTT12=
EXTT13=
PLAYORDER=
